<svg xmlns="http://www.w3.org/2000/svg" viewBox="0 0 370.77 77"><defs><style>.cls-1{fill:#fff;}.cls-2{fill:#ffd400;}</style></defs><g id="Layer_2" data-name="Layer 2"><g id="Layer_1-2" data-name="Layer 1"><path class="cls-1" d="M236.92,13.07c6.52,0,13.58,3.58,14.79,12.06h-7.92c-1.12-3.22-3.5-4.67-6.87-4.67-4.73,0-7.83,3.58-7.83,8.84,0,4.67,3.06,8.76,7.83,8.8,3.41,0,6.16-1.72,7-5.12h7.92c-1.18,9-8.23,12.51-14.93,12.51-8,0-16.1-5.39-16.15-16.19S228.91,13.07,236.92,13.07Zm16.85,7.62V13.43h23.38v7.26h-7.69V45.17h-7.95V20.69ZM280.2,45.17V13.43h13.85c15.07.05,15.07,23.63,0,23.63h-5.8v8.11ZM294,20.69c-1.89-.05-3.91,0-5.76,0v9.07H294C298.42,29.76,298.69,20.73,294,20.69Zm13.69,8.66c0-22,32.28-22,32.28,0S307.7,51.33,307.7,29.35Zm24.06,0c0-11.43-15.79-11.43-15.79,0S331.76,40.87,331.76,29.35Zm14.05,15.87h-2.88V13.43h8.23V29L367.08,13.3H370V45.17h-8.32V29.58ZM354.44,3.5c-1.57.09-3.1.27-4.63.46.14,5.07,3,7.75,7.82,7.75S365.32,9,365.5,4c-1.52-.19-3.05-.37-4.63-.46-.27,1.91-1.48,2.5-3.33,2.5S354.58,5.18,354.44,3.5Z"/><path class="cls-1" d="M96.71,59.61a4.55,4.55,0,0,0,4.74,4.69,4.12,4.12,0,0,0,4.38-3.63H103.5a2,2,0,0,1-2,1.49,2.4,2.4,0,0,1-2.3-2.55,2.31,2.31,0,0,1,2.3-2.57,1.92,1.92,0,0,1,2,1.36h2.33a4.12,4.12,0,0,0-4.34-3.5A4.56,4.56,0,0,0,96.71,59.61Z"/><path class="cls-1" d="M109,57.11v7.1h2.34v-7.1h2.25V55h-6.85v2.1Z"/><path class="cls-1" d="M117.4,64.21V61.85h1.7c4.42,0,4.42-6.83,0-6.84H115v9.2Zm1.68-4.47H117.4V57.11h1.68C120.46,57.12,120.38,59.74,119.08,59.74Z"/><path class="cls-1" d="M133.09,59.62c0-6.36-9.47-6.36-9.47,0S133.09,66,133.09,59.62Zm-7,0a2.32,2.32,0,1,1,4.63,0A2.32,2.32,0,1,1,126,59.62Z"/><path class="cls-1" d="M140.37,59.69v4.52h2.44V55H142l-4.67,4.54V55h-2.42v9.21h.85Z"/><path class="cls-1" d="M146.53,57.11v7.1h2.33v-7.1h2.26V55h-6.86v2.1Z"/><path class="cls-1" d="M158.34,55h-5.76v9.2h5.88V62.12h-3.53V60.5h3.14V58.41h-3.14v-1.3h3.41Z"/><path class="cls-1" d="M164,58.82l2.38,5.39h2.31v-.34l-4.17-9h-1l-4.15,9v.34h2.3Z"/><path class="cls-1" d="M172.23,55h-2.36v9.2h4.07a3.23,3.23,0,1,0,0-6.46h-1.71Zm1.69,4.86c1.3,0,1.37,2.22,0,2.23-.55,0-1.14,0-1.69,0V59.87Z"/><path class="cls-1" d="M178.47,59.61a4.54,4.54,0,0,0,4.73,4.69,4.11,4.11,0,0,0,4.38-3.63h-2.32a2,2,0,0,1-2.06,1.49,2.39,2.39,0,0,1-2.29-2.55A2.31,2.31,0,0,1,183.2,57a1.94,1.94,0,0,1,2,1.36h2.32a4.11,4.11,0,0,0-4.34-3.5A4.56,4.56,0,0,0,178.47,59.61Z"/><path class="cls-1" d="M190.74,57.11v7.1h2.34v-7.1h2.25V55h-6.86v2.1Z"/><path class="cls-1" d="M203.61,57.83A2.82,2.82,0,0,0,200.74,55h-4v9.2h4.33A2.72,2.72,0,0,0,204,61.3a2,2,0,0,0-1.1-1.88A2.23,2.23,0,0,0,203.61,57.83ZM201,60.55c1,0,1,1.57,0,1.57h-1.89V60.55Zm-.4-3.44a.74.74,0,0,1,0,1.48h-1.49V57.11Z"/><path class="cls-1" d="M214.74,59.62c0-6.36-9.47-6.36-9.47,0S214.74,66,214.74,59.62Zm-7.05,0a2.32,2.32,0,1,1,4.63,0A2.32,2.32,0,1,1,207.69,59.62Z"/><path class="cls-1" d="M225.65,59.69v4.52h2.44V55h-.86l-4.67,4.54V55h-2.41v9.21H221Z"/><path class="cls-1" d="M236.43,64.21V61.85h1.7c4.42,0,4.42-6.83,0-6.84h-4.06v9.2Zm1.69-4.47h-1.69V57.11h1.69C239.49,57.12,239.41,59.74,238.12,59.74Z"/><path class="cls-1" d="M249,55h-5.76v9.2h5.88V62.12h-3.53V60.5h3.14V58.41h-3.14v-1.3H249Z"/><path class="cls-1" d="M255.6,59,252,55h-.87v9.23h2.41v-4.1l1.95,2h.27l2-2v4.1h2.42V55h-.85Z"/><path class="cls-1" d="M271.37,59.62c0-6.36-9.47-6.36-9.47,0S271.37,66,271.37,59.62Zm-7,0a2.32,2.32,0,1,1,4.63,0A2.32,2.32,0,1,1,264.33,59.62Z"/><path class="cls-1" d="M280.83,55h-2.41v3.33h-2.85V55h-2.41v9.2h2.41v-3.7h2.85v3.7h2.41Z"/><path class="cls-1" d="M284.55,57.11v7.1h2.33v-7.1h2.26V55h-6.86v2.1Z"/><path class="cls-1" d="M301,57.83A2.82,2.82,0,0,0,298.17,55h-3.95v9.2h4.33a2.72,2.72,0,0,0,2.87-2.91,2,2,0,0,0-1.1-1.88A2.23,2.23,0,0,0,301,57.83Zm-2.66,2.72c.95,0,1,1.57,0,1.57H296.5V60.55Zm-.4-3.44a.74.74,0,0,1,0,1.48H296.5V57.11Z"/><path class="cls-1" d="M309.25,64.21V61.85H311c4.42,0,4.42-6.83,0-6.84h-4.06v9.2Zm1.69-4.47h-1.69V57.11h1.69C312.31,57.12,312.23,59.74,310.94,59.74Z"/><path class="cls-1" d="M321.36,64.21h2.3v-.34l-4.16-9h-1l-4.16,9v.34h2.31l.54-1.16h3.64ZM320.05,61h-2.11l1-2.42Z"/><path class="cls-1" d="M326.36,64.23h5.46v1h1.94V62.17h-1l-3.27-7.28h-1l-3.16,7.28h-.94v3.08h1.95ZM329,58.82l1.33,3.32h-2.61Z"/><path class="cls-1" d="M343.85,59.62c0-6.36-9.48-6.36-9.48,0S343.85,66,343.85,59.62Zm-7.05,0a2.32,2.32,0,1,1,4.63,0A2.32,2.32,0,1,1,336.8,59.62Z"/><path class="cls-1" d="M345.07,59.61a4.54,4.54,0,0,0,4.73,4.69,4.11,4.11,0,0,0,4.38-3.63h-2.32a2,2,0,0,1-2.06,1.49,2.39,2.39,0,0,1-2.29-2.55A2.31,2.31,0,0,1,349.8,57a1.94,1.94,0,0,1,2,1.36h2.32a4.12,4.12,0,0,0-4.34-3.5A4.55,4.55,0,0,0,345.07,59.61Z"/><path class="cls-1" d="M357.34,57.11v7.1h2.33v-7.1h2.26V55h-6.86v2.1Z"/><path class="cls-1" d="M365.75,55h-2.36v9.2h4.06a3.23,3.23,0,1,0,0-6.46h-1.7Zm1.69,4.86c1.29,0,1.37,2.22,0,2.23-.55,0-1.15,0-1.69,0V59.87Z"/><path class="cls-2" d="M96.83,45.17V13.43h13.85c15.06.05,15.06,23.63,0,23.63h-5.8v8.11Zm13.8-24.48c-1.89-.05-3.91,0-5.75,0v9.07h5.75C115,29.76,115.31,20.73,110.63,20.69Zm32.15,20.5H130.37l-1.85,4h-7.86V44l14.16-31h3.46l14.21,31v1.17h-7.87ZM136.53,25.9,133,34.25h7.19Zm24,22.85h-6.65V38.15h3.19L167.89,13h3.46l11.16,25.13h3.28v10.6h-6.61V45.27H160.56Zm4.68-10.69h8.9L169.6,26.58Zm44.4,3.13H197.23l-1.84,4h-7.87V44l14.16-31h3.47l14.21,31v1.17h-7.87ZM203.4,25.9l-3.56,8.35H207Z"/><path class="cls-2" d="M47,37.6c10.19-15.45-3.55-25.58-4.13-26a2.06,2.06,0,1,1,2.42-3.33c10.39,8.05,12.42,20.34,5.55,30.91A7.9,7.9,0,0,1,47,37.6ZM70.3,21.86A28.92,28.92,0,0,0,65.76,7.92H61.12a30.88,30.88,0,0,1,5.05,14A12.44,12.44,0,0,1,70.3,21.86ZM67.65,33.08a10.53,10.53,0,0,0-8.32,4.07c-3,3.51-5.93,5.26-8.84,5.37-2.74.1-5.65-1.25-8.88-4.1,3.67-4.09,5.39-8,5.25-11.81-.15-4.1-2.38-7.95-6.82-11.77-2.34-2-2.66-3.67-2.66-5.16A5.59,5.59,0,0,1,43,4.11H73.24V26.34a16.18,16.18,0,0,0-10.56-.18c.17-4.21-.9-12.57-6.75-18.24H50.3c9,7.44,9.49,17.89,7,26.32C62.9,28,72,28,77.38,33.87V0H43a9.71,9.71,0,0,0-9.72,9.68A10.4,10.4,0,0,0,37.34,18c3.52,3,5.29,5.91,5.39,8.8.1,2.72-1.25,5.62-4.12,8.83-4.11-3.65-8-5.36-11.87-5.22-4.12.15-8,2.37-11.82,6.78-2,2.33-3.69,2.65-5.19,2.65a5.57,5.57,0,0,1-5.59-5.56V4.12H26.47a15.88,15.88,0,0,0-.18,10.5c-4.23-.17-12.63.9-18.33,6.73V27c7.48-9,18-9.44,26.45-7C28.18,14.41,28.13,5.31,34,0H0V34.24a9.71,9.71,0,0,0,9.73,9.67,10.5,10.5,0,0,0,8.32-4.07c3-3.5,5.93-5.26,8.84-5.36,2.73-.1,5.65,1.25,8.88,4.1-3.67,4.08-5.39,8-5.26,11.81.16,4.1,2.39,8,6.83,11.76,2.34,2,2.66,3.68,2.66,5.17a5.58,5.58,0,0,1-5.59,5.56H4.14V50.66a16.15,16.15,0,0,0,10.55.18c-.17,4.2.91,12.57,6.76,18.23h5.63c-9-7.43-9.49-17.88-7-26.31A13.37,13.37,0,0,1,0,43.12V77H34.41a9.72,9.72,0,0,0,9.72-9.68A10.4,10.4,0,0,0,40,59c-3.52-3-5.29-5.91-5.39-8.8-.1-2.72,1.25-5.62,4.12-8.84,4.1,3.66,8,5.37,11.87,5.23,4.12-.15,8-2.37,11.82-6.79,2-2.32,3.69-2.64,5.19-2.64a5.57,5.57,0,0,1,5.59,5.56V72.88H50.91a15.94,15.94,0,0,0,.18-10.5c4.22.17,12.63-.9,18.33-6.73v-5.6c-7.48,9-18,9.44-26.45,7,6.23,5.55,6.28,14.65.37,20h34V42.76A9.71,9.71,0,0,0,67.65,33.08Zm1.42,12a2,2,0,0,0-.46-2.87,2.08,2.08,0,0,0-2.89.46c-.42.58-10.6,14.24-26.13,4.12A7.78,7.78,0,0,0,38,50.55C48.63,57.38,61,55.36,69.07,45Zm.35,20.4V60.81a31.18,31.18,0,0,1-14.09,5,12.27,12.27,0,0,1,.09,4.1A29.15,29.15,0,0,0,69.42,65.43ZM26.58,37.82c-6.87,10.57-4.84,22.85,5.55,30.91a2.06,2.06,0,1,0,2.42-3.33C34,65,20.23,54.85,30.41,39.4A7.85,7.85,0,0,0,26.58,37.82ZM7.08,55.14a28.85,28.85,0,0,0,4.54,13.93h4.64a30.9,30.9,0,0,1-5.06-14A12.23,12.23,0,0,1,7.08,55.14ZM8.31,32a2,2,0,0,0,.46,2.87,2.09,2.09,0,0,0,2.89-.46c.42-.58,10.6-14.25,26.12-4.11a7.78,7.78,0,0,0,1.59-3.82C28.75,19.62,16.4,21.63,8.31,32ZM8,11.56v4.62a31.22,31.22,0,0,1,14.08-5A12.42,12.42,0,0,1,22,7.05,29.2,29.2,0,0,0,8,11.56Z"/></g></g></svg>